<svg version="1.2" xmlns="http://www.w3.org/2000/svg" viewBox="0 0 836 841" width="836" height="841">
	<title>floor</title>
	<style>
		.s0 { fill: #41abb5 } 
		.s1 { fill: #64c0c4 } 
	</style>
	<g id="BG 1 ">
		<path id="BG" class="s0" d="m872 879h-900v-900h900z"/>
		<path id="Grid" fill-rule="evenodd" class="s1" d="m871.1 39l-33 33 33 33 0.9-0.8v5.2l-0.9-0.8-33 33 33 33 0.9-0.8v5.2l-0.9-0.8-33 33 33 33 0.9-0.8v5.2l-0.9-0.8-33 33 33 33 0.9-0.9v5.3l-0.9-0.9-33 33.1 33 33 0.9-0.9v5.3l-0.9-0.9-33 33.1 33 33 0.9-0.9v5.3l-0.9-0.9-33 33.1 33 33 0.9-0.9v5.3l-0.9-0.9-33 33 33 33.1 0.9-0.9v5.3l-0.9-0.9-33 33 33 33.1 0.9-0.9v5.3l-0.9-0.9-33 33 33 33.1 0.9-0.9v5.3l-0.9-0.9-33 33 33 33 0.9-0.8v5.2l-0.9-0.8-33 33 33 33 0.9-0.8v5.2l-0.9-0.8-4.9 4.9h-3.5l6.7-6.7-33.1-33-33 33 6.7 6.7h-3.5l-5-4.9-4.9 4.9h-3.5l6.7-6.7-33-33-33.1 33 6.7 6.7h-3.5l-4.9-4.9-5 4.9h-3.5l6.7-6.7-33-33-33.1 33 6.7 6.7h-3.5l-4.9-4.9-5 4.9h-3.5l6.7-6.7-33-33-33.1 33 6.7 6.7h-3.5l-4.9-4.9-5 4.9h-3.5l6.7-6.7-33-33-33.1 33 6.7 6.7h-3.5l-4.9-4.9-4.9 4.9h-3.6l6.7-6.7-33-33-33 33 6.6 6.7h-3.5l-4.9-4.9-4.9 4.9h-3.6l6.7-6.7-33-33-33 33 6.7 6.7h-3.6l-4.9-4.9-4.9 4.9h-3.6l6.7-6.7-33-33-33 33 6.7 6.7h-3.6l-4.9-4.9-4.9 4.9h-3.6l6.7-6.7-33-33-33 33 6.7 6.7h-3.6l-4.9-4.9-4.9 4.9h-3.5l6.6-6.7-33-33-33 33 6.7 6.7h-3.6l-4.9-4.9-4.9 4.9h-3.5l6.7-6.7-33.1-33-33 33 6.7 6.7h-3.5l-5-4.9-4.9 4.9h-3.5l6.7-6.7-33.1-33-33 33 6.7 6.7h-3.5l-5-4.9-4.9 4.9h-3.5l6.7-6.7-33.1-33-29.2 29.2v-3.5l27.5-27.5-27.5-27.5v-3.5l29.2 29.2 33.1-33-33.1-33-29.2 29.2v-3.5l27.5-27.5-27.5-27.5v-3.5l29.2 29.3 33.1-33.1-33.1-33-29.2 29.2v-3.5l27.5-27.5-27.5-27.4v-3.6l29.2 29.3 33.1-33.1-33.1-33-29.2 29.3v-3.6l27.5-27.5-27.5-27.4v-3.6l29.2 29.3 33.1-33.1-33.1-33-29.2 29.3v-3.6l27.5-27.5-27.5-27.4v-3.6l29.2 29.3 33.1-33-33.1-33.1-29.2 29.3v-3.6l27.5-27.4-27.5-27.5v-3.6l29.2 29.3 33.1-33-33.1-33.1-29.2 29.3v-3.6l27.5-27.4-27.5-27.5v-3.5l29.2 29.2 33.1-33-33.1-33.1-29.2 29.3v-3.6l27.5-27.4-27.5-27.5v-3.5l29.2 29.2 33.1-33-33.1-33.1-29.2 29.3v-3.5l27.5-27.5-27.5-27.5v-3.5l29.2 29.2 33.1-33-33.1-33-29.2 29.2v-3.5l27.5-27.5-27.5-27.5v-3.5l29.2 29.2 33.1-33-33.1-33-29.2 29.2v-3.5l27.5-27.5-27.5-27.5v-3.5l29.2 29.2 33.1-33-33.1-33-29.2 29.2v-3.5l27.5-27.5-27.5-27.5v-3.5l29.2 29.2 33.1-33-33.1-33-29.2 29.2v-3.5l27.5-27.5-23.4-23.4h3.5l21.6 21.6 21.7-21.6h3.5l-23.4 23.4 33 33 33.1-33-23.4-23.4h3.5l21.6 21.6 21.7-21.6h3.5l-23.4 23.4 33 33 33.1-33-23.5-23.4h3.6l21.6 21.6 21.7-21.6h3.5l-23.4 23.4 33 33 33-33-23.4-23.4h3.6l21.6 21.6 21.7-21.6h3.5l-23.4 23.4 33 33 33-33-23.4-23.4h3.6l21.6 21.6 21.7-21.6h3.5l-23.4 23.4 33 33 33-33-23.4-23.4h3.6l21.6 21.6 21.6-21.6h3.6l-23.4 23.4 33 33 33-33-23.4-23.4h3.5l21.7 21.6 21.6-21.6h3.6l-23.4 23.4 33 33 33-33-23.4-23.4h3.5l21.7 21.6 21.6-21.6h3.6l-23.4 23.4 33 33 33-33-23.4-23.4h3.5l21.7 21.6 21.6-21.6h3.6l-23.5 23.4 33.1 33 33-33-23.4-23.4h3.5l21.7 21.6 21.6-21.6h3.6l-23.5 23.4 33.1 33 33-33-23.4-23.4h3.5l21.7 21.6 21.6-21.6h3.5l-23.4 23.4 33.1 33 33-33-23.4-23.4h3.5l21.7 21.6 21.6-21.6h3.5l-23.4 23.4 33 33 33.1-33-23.4-23.4h3.5l21.6 21.6 21.7-21.6h3.5l-23.4 23.4 33 33 0.9-0.8v5.2zm-899.1 837.2l2.9 2.9h-2.9zm829.5-837.2l-33 33.1 33 33 33-33zm-208.7 347.9l-33.1 33.1 33.1 33 33-33zm34.8 31.2l33-33-33-33-33 33zm-36.6-33l-33-33.1-33.1 33.1 33.1 33zm-67.9 1.8l-33 33 33 33 33.1-33zm-1.8-1.8l-33-33-33.1 33 33.1 33zm-67.8 1.8l-33.1 33 33.1 33.1 33-33.1zm-1.8-1.7l-33-33.1-33 33.1 33 33zm-67.8 1.8l-33.1 33 33.1 33 33-33zm-1.8-1.8l-33-33-33 33 33 33.1zm-67.8 1.7l-33.1 33.1 33.1 33 33-33zm-1.8-1.8l-33-33-33 33 33 33zm-67.8 1.8l-33.1 33 33.1 33 33-33zm-1.8-1.8l-33-33-33 33 33 33.1zm-66 69.6l33 33 33-33-33-33.1zm34.8 34.8l33 33.1 33-33.1-33-33zm67.8-1.8l33.1-33-33.1-33-33 33zm1.8 1.8l33 33 33-33-33-33.1zm67.8-1.7l33-33.1-33-33-33 33zm1.8 1.8l33 33 33-33-33-33zm67.8-1.8l33-33-33-33-33 33zm1.7 1.8l33.1 33 33-33-33-33.1zm67.8-1.7l33-33.1-33-33-33 33zm1.7 1.8l33.1 33 33-33-33-33zm67.8-1.8l33-33-33-33-33 33zm1.7 1.8l33.1 33 33-33-33-33.1zm67.8-1.7l33-33.1-33-33-33 33zm1.7 1.8l33.1 33 33-33-33-33zm33-36.6l33-33-33-33-33 33zm0-69.6l33-33-33-33.1-33.1 33.1zm-1.7-67.9l-33.1-33-33 33 33 33.1zm-67.8 1.7l-33 33.1 33 33 33-33zm-1.7-1.8l-33.1-33-33 33 33 33zm-67.8 1.8l-33 33 33 33 33-33zm-1.7-1.8l-33.1-33-33 33 33 33.1zm-67.8 1.7l-33 33.1 33 33 33.1-33zm-1.8-1.8l-33-33-33.1 33 33.1 33zm-67.9 1.8l-33 33 33 33.1 33.1-33.1zm-1.8-1.7l-33-33.1-33.1 33.1 33.1 33zm-67.9 1.8l-33 33 33 33 33.1-33zm-1.8-1.8l-33-33-33.1 33 33.1 33zm-67.9 1.8l-33 33 33 33.1 33.1-33.1zm-1.8-1.7l-33-33.1-33 33.1 33 33zm-67.8 1.8l-33.1 33 33.1 33 33-33zm-33 102.6l33 33 33-33-33-33zm0 69.6l33 33 33-33-33-33.1zm0 69.6l33 33.1 33.1-33.1-33.1-33zm67.9-1.8l33-33-33-33-33.1 33zm1.8 1.8l33 33 33.1-33-33.1-33zm67.9-1.8l33-33-33-33.1-33.1 33.1zm1.8 1.7l33 33.1 33-33.1-33-33zm67.8-1.8l33.1-33-33.1-33-33 33zm1.8 1.8l33 33 33-33-33-33.1zm67.8-1.7l33.1-33-33.1-33.1-33 33.1zm1.8 1.7l33 33 33-33-33-33zm67.8-1.8l33.1-33-33.1-33-33 33zm1.8 1.8l33 33 33-33-33-33.1zm67.8-1.7l33-33.1-33-33-33 33zm1.8 1.8l33 33 33-33-33-33zm67.8-1.8l33-33-33-33-33 33zm1.8 1.8l33 33 33-33-33-33.1zm67.8-1.7l33-33.1-33-33-33 33zm0-69.6l33-33-33-33-33.1 33zm0-69.6l33.1-33-33.1-33-33 33zm0-69.6l33-33-33-33-33 33zm0-69.6l33-33-33-33.1-33 33.1zm-34.8-31.3l-33.1 33 33.1 33.1 33-33.1zm-1.8-1.7l-33-33.1-33 33.1 33 33zm-67.8 1.8l-33 33 33 33 33-33zm-1.8-1.8l-33-33-33 33 33 33zm-67.8 1.8l-33 33 33 33.1 33-33.1zm-1.8-1.7l-33-33.1-33 33.1 33 33zm-67.8 1.8l-33 33 33 33 33-33zm-1.7-1.8l-33.1-33-33 33 33 33.1zm-67.8 1.7l-33 33 33 33.1 33-33.1zm-1.7-1.7l-33.1-33.1-33 33.1 33 33zm-67.8 1.8l-33 33 33 33 33-33zm-1.7-1.8l-33.1-33-33 33 33 33.1zm-67.8 1.7l-33 33.1 33 33 33-33zm-1.7-1.8l-33-33-33.1 33 33.1 33zm-67.9 1.8l-33 33 33 33 33.1-33zm-1.8-1.8l-33-33-33.1 33 33.1 33.1zm-66.1 69.6l33 33 33.1-33-33.1-33.1zm0 69.6l33.1 33.1 33-33.1-33-33zm0 69.6l33 33 33-33-33-33zm0 69.6l33 33 33-33-33-33.1zm0 69.6l33 33 33.1-33-33.1-33zm34.8 34.8l33.1 33 33-33-33-33zm67.8-1.8l33-33-33-33.1-33 33.1zm1.7 1.7l33.1 33.1 33-33.1-33-33zm67.8-1.8l33-33-33-33-33 33zm1.7 1.8l33 33 33.1-33-33.1-33zm67.9-1.8l33-33-33-33.1-33.1 33.1zm1.8 1.7l33 33.1 33.1-33.1-33.1-33zm67.9-1.8l33-33-33-33-33.1 33zm1.8 1.8l33 33 33.1-33-33.1-33.1zm67.9-1.7l33-33.1-33-33-33.1 33zm1.8 1.8l33 33 33.1-33-33.1-33zm67.8-1.8l33.1-33-33.1-33-33 33zm1.8 1.8l33 33 33-33-33-33.1zm67.8-1.7l33.1-33.1-33.1-33-33 33zm1.8 1.8l33 33 33-33-33-33zm67.8-1.8l33.1-33-33.1-33-33 33zm1.8 1.8l33 33 33-33-33-33.1zm33-36.5l33.1-33.1-33.1-33-33 33zm0-69.6l33-33-33-33-33 33zm0-69.6l33-33-33-33-33.1 33zm0-69.6l33.1-33-33.1-33-33 33zm0-69.6l33-33-33-33.1-33 33.1zm0-69.6l33-33.1-33-33-33 33zm-1.8-67.8l-33-33-33.1 33 33.1 33zm-67.9 1.8l-33 33 33 33.1 33.1-33.1zm-1.8-1.7l-33-33.1-33.1 33.1 33.1 33zm-67.9 1.8l-33 33 33 33 33.1-33zm-1.8-1.8l-33-33-33 33 33 33.1zm-67.8 1.7l-33.1 33 33.1 33.1 33-33.1zm-1.8-1.7l-33-33-33 33 33 33zm-67.8 1.8l-33.1 33 33.1 33 33-33zm-1.8-1.8l-33-33-33 33 33 33.1zm-67.8 1.7l-33.1 33.1 33.1 33 33-33zm-1.8-1.8l-33-33-33 33 33 33zm-67.8 1.8l-33 33 33 33 33-33zm-1.8-1.8l-33-33-33 33 33 33.1zm-67.8 1.7l-33 33.1 33 33 33-33zm-1.8-1.8l-33-33-33 33 33 33zm-67.8 1.8l-33 33 33 33.1 33-33.1zm-1.7-1.7l-33.1-33.1-33 33.1 33 33zm-67.8 1.8l-33 33 33 33 33-33zm-33 102.6l33 33 33.1-33-33.1-33zm0 69.6l33.1 33 33-33-33-33.1zm0 69.6l33 33.1 33-33.1-33-33zm0 69.6l33 33 33-33-33-33zm0 69.6l33 33 33.1-33-33.1-33.1zm0 69.6l33.1 33 33-33-33-33zm0 69.6l33 33 33-33-33-33zm67.8-1.8l33-33-33-33.1-33 33.1zm1.8 1.7l33 33.1 33-33.1-33-33zm67.8-1.8l33-33-33-33-33 33zm1.8 1.8l33 33 33-33-33-33.1zm67.8-1.7l33-33.1-33-33-33 33zm1.7 1.8l33.1 33 33-33-33-33zm67.8-1.8l33-33-33-33-33 33zm1.7 1.8l33.1 33 33-33-33-33.1zm67.8-1.7l33-33.1-33-33-33 33zm1.7 1.8l33.1 33 33-33-33-33zm67.8-1.8l33-33-33-33-33 33zm1.7 1.8l33 33 33.1-33-33.1-33.1zm67.9-1.7l33-33.1-33-33-33.1 33zm1.8 1.8l33 33 33.1-33-33.1-33zm67.9-1.8l33-33-33-33-33.1 33zm1.8 1.7l33 33.1 33.1-33.1-33.1-33zm67.9-1.7l33-33.1-33-33-33.1 33zm1.8 1.8l33 33 33-33-33-33zm67.8-1.8l33.1-33-33.1-33.1-33 33.1zm0-69.6l33-33-33-33.1-33 33.1zm0-69.6l33-33.1-33-33-33 33zm0-69.6l33-33-33-33-33.1 33zm0-69.6l33.1-33-33.1-33-33 33zm0-69.6l33-33-33-33.1-33 33.1zm0-69.6l33-33-33-33.1-33 33.1zm0-69.6l33-33.1-33-33-33.1 33zm0-69.6l33.1-33-33.1-33-33 33zm-34.8-31.2l-33 33 33 33 33-33zm-1.7-1.8l-33.1-33-33 33 33 33zm-67.8 1.8l-33 33 33 33.1 33-33.1zm-1.7-1.7l-33.1-33.1-33 33.1 33 33zm-67.8 1.8l-33 33 33 33 33-33zm-1.7-1.8l-33-33-33.1 33 33.1 33.1zm-67.9 1.7l-33 33.1 33 33 33.1-33zm-1.8-1.8l-33-33-33.1 33 33.1 33zm-67.9 1.8l-33 33 33 33 33.1-33zm-1.8-1.8l-33-33-33.1 33 33.1 33.1zm-67.9 1.7l-33 33.1 33 33 33.1-33zm-1.8-1.8l-33-33-33.1 33 33.1 33zm-67.8 1.8l-33.1 33 33.1 33 33-33zm-1.8-1.8l-33-33-33 33 33 33.1zm-67.8 1.7l-33.1 33.1 33.1 33 33-33zm-1.8-1.8l-33-33-33 33 33 33zm-67.8 1.8l-33.1 33 33.1 33.1 33-33.1zm-1.8-1.7l-33-33.1-33 33.1 33 33zm-67.8 1.8l-33.1 33 33.1 33 33-33zm-1.8-1.8l-33-33-33 33 33 33zm-66 69.6l33 33.1 33-33.1-33-33zm0 69.6l33 33 33-33-33-33zm0 69.6l33 33 33.1-33-33.1-33.1zm0 69.6l33.1 33.1 33-33.1-33-33zm0 69.6l33 33 33-33-33-33zm0 69.6l33 33 33-33-33-33.1zm0 69.6l33 33 33.1-33-33.1-33zm0 69.6l33.1 33 33-33-33-33zm0 69.5l33 33.1 33-33.1-33-33zm34.8 34.8l33 33 33.1-33-33.1-33zm67.8-1.8l33.1-33-33.1-33-33 33zm1.8 1.8l33 33 33-33-33-33.1zm67.8-1.7l33.1-33.1-33.1-33-33 33zm1.8 1.8l33 33 33-33-33-33zm67.8-1.8l33.1-33-33.1-33-33 33zm1.8 1.7l33 33.1 33-33.1-33-33zm67.8-1.7l33-33.1-33-33-33 33zm1.8 1.8l33 33 33-33-33-33zm67.8-1.8l33-33-33-33.1-33 33.1zm1.8 1.7l33 33.1 33-33.1-33-33zm67.8-1.8l33-33-33-33-33 33zm1.7 1.8l33.1 33 33-33-33-33zm67.8-1.8l33-33-33-33.1-33 33.1zm1.7 1.7l33.1 33.1 33-33.1-33-33zm67.8-1.8l33-33-33-33-33 33zm1.7 1.8l33.1 33 33-33-33-33zm67.8-1.8l33-33-33-33.1-33.1 33.1zm1.8 1.7l33 33.1 33.1-33.1-33.1-33zm67.9-1.8l33-33-33-33-33.1 33zm1.8 1.8l33 33 33.1-33-33.1-33.1zm33.1-36.5l33-33-33-33.1-33.1 33.1zm0-69.6l33.1-33.1-33.1-33-33 33zm0-69.6l33-33-33-33-33 33zm0-69.6l33-33-33-33-33 33zm0-69.6l33-33-33-33-33.1 33zm0-69.6l33.1-33-33.1-33.1-33 33.1zm0-69.6l33-33.1-33-33-33 33zm0-69.6l33-33-33-33-33.1 33zm0-69.6l33.1-33-33.1-33-33 33zm-67.8-137.4l33 33 33-33-33-33zm-1.7 1.7l-33.1 33.1 33.1 33 33-33zm-67.8-1.8l33 33 33-33-33-33zm-34.8 34.8l33 33 33-33-33-33.1zm-34.8-34.8l33 33.1 33.1-33.1-33.1-33zm-34.7 34.8l33 33 33-33-33-33zm-34.8-34.8l33 33 33-33-33-33zm-34.8 34.7l33 33.1 33.1-33.1-33.1-33zm-34.8-34.8l33.1 33.1 33-33.1-33-33zm-34.8 34.8l33 33 33-33-33-33zm-34.8-34.8l33 33 33.1-33-33.1-33.1zm-34.8 34.8l33.1 33.1 33-33.1-33-33zm-34.8-34.8l33 33 33-33-33-33zm-34.8 34.8l33 33 33.1-33-33.1-33zm-34.8-34.8l33.1 33 33-33-33-33.1zm-34.8 34.8l33 33.1 33-33.1-33-33zm-34.8-34.8l33 33 33.1-33-33.1-33zm-34.8 34.8l33.1 33 33-33-33-33.1zm-34.8-34.8l33 33.1 33-33.1-33-33zm-34.8 34.8l33 33 33.1-33-33.1-33zm-34.8-34.8l33.1 33 33-33-33-33zm-1.8 67.8l33-33-33-33.1-33 33.1zm0 69.6l33-33.1-33-33-33.1 33zm0 69.6l33.1-33-33.1-33-33 33zm0 69.6l33-33-33-33.1-33 33.1zm0 69.5l33-33-33-33-33 33zm0 69.6l33-33-33-33-33.1 33zm0 69.6l33.1-33.1-33.1-33-33 33zm0 69.6l33-33-33-33-33 33zm0 69.6l33-33-33-33.1-33.1 33.1zm0 69.6l33.1-33.1-33.1-33-33 33zm0 69.6l33-33-33-33-33 33zm33 36.6l-33-33.1-33 33.1 33 33zm1.8-1.8l33-33-33-33-33.1 33zm67.9 1.8l-33.1-33.1-33 33.1 33 33zm1.8-1.8l33-33-33-33-33 33zm67.8 1.8l-33-33.1-33.1 33.1 33.1 33zm1.7-1.8l33.1-33-33.1-33-33 33zm67.8 1.8l-33-33.1-33 33.1 33 33zm1.8-1.8l33-33-33-33-33.1 33zm67.9 1.8l-33.1-33.1-33 33.1 33 33zm1.8-1.8l33-33-33-33-33 33zm67.8 1.8l-33-33.1-33.1 33.1 33.1 33zm1.7-1.8l33.1-33-33.1-33-33 33zm67.8 1.8l-33-33.1-33 33.1 33 33zm1.8-1.8l33-33-33-33-33 33zm67.8 1.8l-33-33.1-33.1 33.1 33.1 33zm1.7-1.8l33-33-33-33-33 33zm67.8 1.8l-33-33.1-33 33.1 33 33zm1.8-1.8l33-33-33-33-33.1 33zm67.9 1.8l-33.1-33.1-33 33.1 33 33zm1.8-1.8l33-33-33-33-33 33zm67.8 1.8l-33-33.1-33.1 33.1 33.1 33zm1.7-1.8l33.1-33-33.1-33-33 33zm67.8 1.8l-33-33.1-33 33.1 33 33zm1.8-67.8l-33.1 33 33.1 33 33-33zm0-69.6l-33 33 33 33.1 33-33.1zm0-69.6l-33 33.1 33 33 33.1-33zm0-69.6l-33.1 33 33.1 33 33-33zm0-69.6l-33 33 33 33.1 33-33.1zm0-69.6l-33 33.1 33 33 33-33zm0-69.6l-33 33 33 33 33.1-33zm0-69.6l-33.1 33 33.1 33.1 33-33.1zm0-69.5l-33 33 33 33 33-33zm0-69.6l-33 33 33 33 33-33zm0-69.6l-33 33 33 33.1 33.1-33.1zm33-36.5l-33-33-33.1 33 33.1 33z"/>
	</g>
</svg>